<svg width="35" height="36" viewBox="0 0 35 36" fill="none" xmlns="http://www.w3.org/2000/svg">
<path d="M12.0312 25.4165L17.5 19.9477L22.9687 25.4165L24.5 23.8852L19.0312 18.4165L24.5 12.9477L22.9687 11.4165L17.5 16.8852L12.0312 11.4165L10.5 12.9477L15.9687 18.4165L10.5 23.8852L12.0312 25.4165ZM17.5 32.9998C15.5069 32.9998 13.6232 32.617 11.8489 31.8514C10.0746 31.0857 8.52513 30.0406 7.20048 28.7159C5.87583 27.3913 4.83069 25.8418 4.06506 24.0675C3.29944 22.2932 2.91663 20.4095 2.91663 18.4165C2.91663 16.3991 3.29944 14.5033 4.06506 12.729C4.83069 10.9547 5.87583 9.41126 7.20048 8.09876C8.52513 6.78626 10.0746 5.74719 11.8489 4.98157C13.6232 4.21594 15.5069 3.83313 17.5 3.83313C19.5173 3.83313 21.4132 4.21594 23.1875 4.98157C24.9618 5.74719 26.5052 6.78626 27.8177 8.09876C29.1302 9.41126 30.1692 10.9547 30.9349 12.729C31.7005 14.5033 32.0833 16.3991 32.0833 18.4165C32.0833 20.4095 31.7005 22.2932 30.9349 24.0675C30.1692 25.8418 29.1302 27.3913 27.8177 28.7159C26.5052 30.0406 24.9618 31.0857 23.1875 31.8514C21.4132 32.617 19.5173 32.9998 17.5 32.9998ZM17.5 30.8123C20.9513 30.8123 23.8802 29.6031 26.2864 27.1847C28.6927 24.7663 29.8958 21.8435 29.8958 18.4165C29.8958 14.9651 28.6927 12.0363 26.2864 9.63C23.8802 7.22375 20.9513 6.02063 17.5 6.02063C14.0729 6.02063 11.1501 7.22375 8.73173 9.63C6.31333 12.0363 5.10413 14.9651 5.10413 18.4165C5.10413 21.8435 6.31333 24.7663 8.73173 27.1847C11.1501 29.6031 14.0729 30.8123 17.5 30.8123Z" fill="#EE5522"/>
</svg>
